<svg width="12" height="12" viewBox="0 0 12 12" fill="none" xmlns="http://www.w3.org/2000/svg">
<g clip-path="url(#clip0_2_1864)">
<path d="M11.5605 4.53449L7.76801 0.741494C7.29863 0.273489 6.66284 0.0106812 6.00001 0.0106812C5.33718 0.0106812 4.70139 0.273489 4.23201 0.741494L0.439506 4.53449C0.299719 4.67339 0.188891 4.83864 0.113447 5.02069C0.0380036 5.20273 -0.0005552 5.39794 6.03974e-06 5.59499V10.5035C6.03974e-06 10.9013 0.158041 11.2829 0.439346 11.5642C0.72065 11.8455 1.10218 12.0035 1.50001 12.0035H10.5C10.8978 12.0035 11.2794 11.8455 11.5607 11.5642C11.842 11.2829 12 10.9013 12 10.5035V5.59499C12.0006 5.39794 11.962 5.20273 11.8866 5.02069C11.8111 4.83864 11.7003 4.67339 11.5605 4.53449ZM7.50001 11.0035H4.50001V9.03649C4.50001 8.63867 4.65804 8.25714 4.93935 7.97583C5.22065 7.69453 5.60218 7.53649 6.00001 7.53649C6.39783 7.53649 6.77936 7.69453 7.06067 7.97583C7.34197 8.25714 7.50001 8.63867 7.50001 9.03649V11.0035ZM11 10.5035C11 10.6361 10.9473 10.7633 10.8536 10.857C10.7598 10.9508 10.6326 11.0035 10.5 11.0035H8.50001V9.03649C8.50001 8.37345 8.23662 7.73757 7.76777 7.26873C7.29893 6.79989 6.66305 6.53649 6.00001 6.53649C5.33697 6.53649 4.70108 6.79989 4.23224 7.26873C3.7634 7.73757 3.50001 8.37345 3.50001 9.03649V11.0035H1.50001C1.3674 11.0035 1.24022 10.9508 1.14645 10.857C1.05268 10.7633 1.00001 10.6361 1.00001 10.5035V5.59499C1.00047 5.46248 1.0531 5.33549 1.14651 5.24149L4.93901 1.44999C5.22086 1.16946 5.60234 1.01197 6.00001 1.01197C6.39767 1.01197 6.77916 1.16946 7.06101 1.44999L10.8535 5.24299C10.9465 5.33662 10.9992 5.463 11 5.59499V10.5035Z" fill="black"/>
</g>
<defs>
<clipPath id="clip0_2_1864">
<rect width="12" height="12" fill="white"/>
</clipPath>
</defs>
</svg>
